<svg xmlns="http://www.w3.org/2000/svg" xml:space="preserve"  viewBox="0 0 290.653 290.653"><path fill="currentColor" d="M1.162 132.509c1.267 2.785 4.737 7.457 13.761 7.457h16.986v61.01c0 21.321 17.345 38.661 38.661 38.661h71.431c15.904 0 21.267-6.647 23.045-10.606 1.61-3.59 3.013-11.074-5.689-20.87-12.086-13.598-34.304-24.253-50.578-24.253H87.637v-43.942h17.818c9.426 0 13.032-4.824 14.337-7.696 3.133-6.886 0-16.241-8.822-26.352L86.539 77.912C79.658 70.025 70.45 65.679 60.6 65.679s-19.053 4.346-25.939 12.232l-24.432 28.006C1.26 116.203-1.96 125.645 1.162 132.509zm17.263-19.444 24.432-28.006c4.786-5.488 11.085-8.501 17.742-8.501s12.956 3.019 17.742 8.501l24.432 28.006c6.652 7.626 7.898 12.972 7.114 14.696-.364.8-2.105 1.322-4.433 1.322H82.198a5.438 5.438 0 0 0-5.439 5.439v54.82a5.438 5.438 0 0 0 5.439 5.439h26.581c13.086 0 32.526 9.431 42.446 20.598 3.285 3.704 4.781 7.218 3.9 9.181-.87 1.931-4.824 4.194-13.124 4.194H70.57c-15.322 0-27.783-12.466-27.783-27.783v-66.444a5.438 5.438 0 0 0-5.439-5.439H14.917c-2.012 0-3.563-.435-3.856-1.082-.751-1.648.587-7.169 7.364-14.941zM275.731 150.681h-16.986V89.677c0-21.321-17.345-38.661-38.661-38.661h-71.437c-15.904 0-21.267 6.647-23.045 10.606-1.61 3.59-3.013 11.074 5.689 20.87 12.086 13.598 34.304 24.253 50.578 24.253h21.142v43.942h-17.818c-9.426 0-13.032 4.824-14.337 7.696-3.133 6.886 0 16.241 8.822 26.352l24.432 28.006c6.88 7.887 16.089 12.232 25.939 12.232s19.053-4.346 25.939-12.232l24.432-28.006c8.969-10.285 12.194-19.727 9.072-26.592-1.273-2.784-4.743-7.462-13.761-7.462zm-3.508 26.902-24.432 28.006c-4.786 5.488-11.085 8.501-17.742 8.501s-12.956-3.019-17.742-8.501l-24.432-28.006c-6.652-7.626-7.898-12.972-7.114-14.696.364-.8 2.105-1.322 4.433-1.322h23.257a5.438 5.438 0 0 0 5.439-5.439V101.3a5.438 5.438 0 0 0-5.439-5.439H181.87c-13.086 0-32.526-9.431-42.446-20.598-3.285-3.704-4.781-7.218-3.9-9.181.87-1.931 4.824-4.194 13.124-4.194h71.431c15.322 0 27.783 12.466 27.783 27.783v66.449a5.438 5.438 0 0 0 5.439 5.439h22.425c2.012 0 3.563.435 3.856 1.082.756 1.649-.582 7.169-7.359 14.942z"/></svg>
